<svg xmlns="http://www.w3.org/2000/svg" width="16" height="14.667" viewBox="0 0 16 14.667">
  <g id="paper-clip" transform="translate(0 -21.329)">
    <path id="Path_4" data-name="Path 4" d="M15.2,22.72l-.586-.586a2.747,2.747,0,0,0-3.885,0h0L3.236,29.622a1.943,1.943,0,0,0,0,2.747l.391.391a2.009,2.009,0,0,0,2.747,0L11.9,27.231a.333.333,0,0,0-.463-.48l-.008.008L5.9,32.289a1.321,1.321,0,0,1-1.8,0L3.707,31.9a1.276,1.276,0,0,1,0-1.8h0L11.2,22.605a2.133,2.133,0,0,1,2.943,0l.586.586a2.081,2.081,0,0,1,0,2.943l-8.35,8.35a2.886,2.886,0,0,1-4.081,0L1.512,33.7a2.886,2.886,0,0,1,0-4.081L7.9,23.232a.333.333,0,1,0-.463-.48l-.008.008-6.391,6.39a3.552,3.552,0,0,0,0,5.023h0l.781.781a3.552,3.552,0,0,0,5.023,0h0l8.35-8.35a2.747,2.747,0,0,0,0-3.885Z" transform="translate(0)" fill="#707070"/>
    <path id="Path_5" data-name="Path 5" d="M4.333,36a3.534,3.534,0,0,1-2.512-1.041l-.781-.781a3.552,3.552,0,0,1,0-5.023h0L7.431,22.76a.333.333,0,0,1,.48.463l-.008.008-6.391,6.39a2.886,2.886,0,0,0,0,4.081l.781.781a2.886,2.886,0,0,0,4.081,0l8.35-8.35a2.081,2.081,0,0,0,0-2.943l-.586-.586a2.133,2.133,0,0,0-2.943,0L3.707,30.093a1.276,1.276,0,0,0,0,1.8h0l.391.391a1.321,1.321,0,0,0,1.8,0l5.529-5.529a.333.333,0,0,1,.48.463l-.008.008L6.374,32.76a2.009,2.009,0,0,1-2.747,0l-.391-.391a1.943,1.943,0,0,1,0-2.747l7.488-7.488a2.747,2.747,0,0,1,3.885,0h0l.586.586a2.747,2.747,0,0,1,0,3.885h0l-8.35,8.35A3.534,3.534,0,0,1,4.333,36Z" transform="translate(0)" fill="#707070"/>
  </g>
</svg>
