<svg xmlns="http://www.w3.org/2000/svg" width="190.813" height="219" viewBox="0 0 190.813 219">
  <g id="rocket" transform="translate(-32.949 0)">
    <path id="Path_8" data-name="Path 8" d="M198.222,367.1l4.763,10.983a4.732,4.732,0,0,0,4.341,2.849h31.219a4.731,4.731,0,0,0,4.341-2.849l4.763-10.983Z" transform="translate(-94.58 -210.079)" fill="#9facba"/>
    <path id="Path_9" data-name="Path 9" d="M288.445,367.1l-4.76,10.983a4.731,4.731,0,0,1-4.34,2.851h-9.83a4.731,4.731,0,0,0,4.34-2.851L278.62,367.1Z" transform="translate(-135.379 -210.077)" fill="#8d9ca8"/>
    <path id="Path_10" data-name="Path 10" d="M206.357,447.244a17.4,17.4,0,0,0,1.594-34.732c0-.025,0-.05,0-.076a13.593,13.593,0,0,0-25.342-6.837,22.269,22.269,0,0,0-31.6,10.918,16.7,16.7,0,0,0-22.661,4.233,16.7,16.7,0,0,0-22.661-4.233A22.269,22.269,0,0,0,74.1,405.6a13.593,13.593,0,0,0-25.342,6.837c0,.025,0,.05,0,.076a17.4,17.4,0,0,0,1.594,34.732Z" transform="translate(0 -228.244)" fill="#fdf6ec"/>
    <path id="Path_11" data-name="Path 11" d="M426.445,429.842a17.4,17.4,0,0,1-14.139,17.1l1.6-1.664a17.447,17.447,0,0,0,3.33-6.1c1.956-6.383,1.475-15.664-5.037-19.341a18.248,18.248,0,0,0-3.208-1.386c-1.6-.535-3.253-.909-4.9-1.3a2.69,2.69,0,0,1-2.022-2.288A13.6,13.6,0,0,0,388.6,403.067a13.438,13.438,0,0,0-1.472.08,13.59,13.59,0,0,1,23.509,9.29v.075A17.409,17.409,0,0,1,426.445,429.842Z" transform="translate(-202.683 -228.246)" fill="#fef1da"/>
    <path id="Path_12" data-name="Path 12" d="M145.4,161.621l-27.666,32.112a4.006,4.006,0,0,0-.971,2.615v14.983a4.006,4.006,0,0,0,4.007,4.007H145.4Z" transform="translate(-47.965 -92.49)" fill="#596c76"/>
    <path id="Path_13" data-name="Path 13" d="M328.287,161.621l27.666,32.112a4.006,4.006,0,0,1,.971,2.615v14.983a4.006,4.006,0,0,1-4.007,4.007H328.289Z" transform="translate(-169.012 -92.49)" fill="#596c76"/>
    <path id="Path_14" data-name="Path 14" d="M356.923,196.343v14.983a4.008,4.008,0,0,1-4.009,4.009h-8.663a3.936,3.936,0,0,0,4.009-3.859V197.046a3.761,3.761,0,0,0-.972-2.515l-19.005-21.242V161.616l27.668,32.114A4,4,0,0,1,356.923,196.343Z" transform="translate(-169.01 -92.487)" fill="#465a61"/>
    <path id="Path_15" data-name="Path 15" d="M229.228,14.363a77.967,77.967,0,0,0-10.057-9.834c-3.331-2.8-7.13-3.122-10.461-.326a62.309,62.309,0,0,0-8.53,8.759c-2.4,2.828-4.193,5.144-7.735,9.971a14.712,14.712,0,0,0-2.616,2.658,65,65,0,0,0-7.253,29.925v91.674h62.81V55.515a65,65,0,0,0-7.253-29.924c-.282-.545-1.815-.96-2.114-1.5a58.6,58.6,0,0,0-6.792-9.732Z" transform="translate(-85.627 -1.294)" fill="#ee6161"/>
    <path id="Path_16" data-name="Path 16" d="M278.994,54.221v88.017h-8.84V55.57a62.787,62.787,0,0,0-15.116-41.016A88.159,88.159,0,0,0,244.511,4.242a8.88,8.88,0,0,0-3.2-1.7l.526-.447a8.952,8.952,0,0,1,11.518,0,88.637,88.637,0,0,1,10.528,10.466A64.377,64.377,0,0,1,278.994,54.221Z" transform="translate(-119.236 0)" fill="#e94444"/>
    <path id="Path_17" data-name="Path 17" d="M247.839,24.306h-48.3a62.635,62.635,0,0,1,7.863-11.73A88.763,88.763,0,0,1,217.911,2.121a8.978,8.978,0,0,1,11.556,0,88.761,88.761,0,0,1,10.509,10.455A62.653,62.653,0,0,1,247.839,24.306Z" transform="translate(-95.334 -0.008)" fill="#596c76"/>
    <path id="Path_18" data-name="Path 18" d="M271.741,24.306h-9.834a61.313,61.313,0,0,0-6.869-9.746A88.159,88.159,0,0,0,244.511,4.248a8.88,8.88,0,0,0-3.2-1.7c.089-.08.177-.15.265-.225s.163-.142.243-.208a9.423,9.423,0,0,1,1.361-.95,8.989,8.989,0,0,1,6.618-.884c2.759.7,4.763,2.739,6.727,4.616a98.454,98.454,0,0,1,7.357,7.676,59.328,59.328,0,0,1,3.752,4.9,67.992,67.992,0,0,1,4.111,6.834Z" transform="translate(-119.236 -0.006)" fill="#465a61"/>
    <circle id="Ellipse_2" data-name="Ellipse 2" cx="17.995" cy="17.995" r="17.995" transform="translate(110.36 45.718)" fill="#fdf6ec"/>
    <path id="Path_19" data-name="Path 19" d="M257.016,125.892a17.992,17.992,0,0,1-30.682,12.755,18,18,0,0,0,17.86-30A18,18,0,0,1,257.016,125.892Z" transform="translate(-110.668 -62.177)" fill="#fef1da"/>
    <path id="Path_20" data-name="Path 20" d="M239.072,348.289H173.759a4.4,4.4,0,0,1-4.4-4.4v-6.947a4.4,4.4,0,0,1,4.4-4.4h65.312a4.4,4.4,0,0,1,4.4,4.4v6.947A4.4,4.4,0,0,1,239.072,348.289Z" transform="translate(-78.061 -190.297)" fill="#596c76"/>
    <path id="Path_21" data-name="Path 21" d="M324.927,336.94v6.948a4.4,4.4,0,0,1-4.4,4.4h-8.84a4.4,4.4,0,0,0,4.4-4.4V336.94a4.4,4.4,0,0,0-4.4-4.4h8.84A4.4,4.4,0,0,1,324.927,336.94Z" transform="translate(-159.511 -190.3)" fill="#465a61"/>
    <g id="Group_28" data-name="Group 28" transform="translate(53.17 134.878)">
      <g id="Group_24" data-name="Group 24">
        <g id="Group_22" data-name="Group 22">
          <path id="Path_22" data-name="Path 22" d="M83.431,341.369a3.208,3.208,0,0,1-3.208-3.208V318.538a3.208,3.208,0,0,1,6.416,0v19.623A3.208,3.208,0,0,1,83.431,341.369Z" transform="translate(-80.223 -315.33)" fill="#9facba"/>
        </g>
        <g id="Group_23" data-name="Group 23" transform="translate(14.236)">
          <path id="Path_23" data-name="Path 23" d="M116.714,328.671a3.208,3.208,0,0,1-3.208-3.208v-6.925a3.208,3.208,0,0,1,6.416,0v6.925A3.208,3.208,0,0,1,116.714,328.671Z" transform="translate(-113.506 -315.33)" fill="#9facba"/>
        </g>
      </g>
      <g id="Group_27" data-name="Group 27" transform="translate(129.719)">
        <g id="Group_25" data-name="Group 25" transform="translate(14.236)">
          <path id="Path_24" data-name="Path 24" d="M419.983,341.369a3.208,3.208,0,0,1-3.208-3.208V318.538a3.208,3.208,0,0,1,6.416,0v19.623A3.208,3.208,0,0,1,419.983,341.369Z" transform="translate(-416.775 -315.33)" fill="#9facba"/>
        </g>
        <g id="Group_26" data-name="Group 26">
          <path id="Path_25" data-name="Path 25" d="M386.7,328.671a3.208,3.208,0,0,1-3.208-3.208v-6.925a3.208,3.208,0,1,1,6.416,0v6.925A3.208,3.208,0,0,1,386.7,328.671Z" transform="translate(-383.493 -315.33)" fill="#9facba"/>
        </g>
      </g>
    </g>
    <g id="Group_29" data-name="Group 29" transform="translate(49.097 193.88)">
      <path id="Path_26" data-name="Path 26" d="M79.548,467.919a3.191,3.191,0,0,1-1.478-.363,13.838,13.838,0,0,1-7.35-10.72,3.208,3.208,0,1,1,6.377-.71,7.421,7.421,0,0,0,3.933,5.738,3.208,3.208,0,0,1-1.483,6.055Z" transform="translate(-70.7 -453.272)" fill="#ead8be"/>
    </g>
    <g id="Group_30" data-name="Group 30" transform="translate(165.934 189.446)">
      <path id="Path_27" data-name="Path 27" d="M352,457.992a3.208,3.208,0,0,1-3.2-3.12,7.421,7.421,0,0,0-3.442-6.046,3.208,3.208,0,0,1,3.424-5.425,13.835,13.835,0,0,1,6.431,11.3,3.208,3.208,0,0,1-3.119,3.295Z" transform="translate(-343.855 -442.905)" fill="#ead8be"/>
    </g>
  </g>
</svg>
