<svg id="calendar" xmlns="http://www.w3.org/2000/svg" width="19" height="19" viewBox="0 0 19 19">
  <g id="Group_72" data-name="Group 72">
    <g id="Group_71" data-name="Group 71">
      <ellipse id="Ellipse_4" data-name="Ellipse 4" cx="0.5" cy="1" rx="0.5" ry="1" transform="translate(14 7)" fill="#1c9dff"/>
      <path id="Path_56" data-name="Path 56" d="M16.031,1.484h-.965V.742a.742.742,0,0,0-1.484,0v.742H10.205V.742a.742.742,0,0,0-1.484,0v.742H5.381V.742A.742.742,0,1,0,3.9.742v.742H2.969A2.972,2.972,0,0,0,0,4.453V16.031A2.972,2.972,0,0,0,2.969,19H8.646a.742.742,0,1,0,0-1.484H2.969a1.486,1.486,0,0,1-1.484-1.484V4.453A1.486,1.486,0,0,1,2.969,2.969H3.9v.742a.742.742,0,1,0,1.484,0V2.969h3.34v.742a.742.742,0,1,0,1.484,0V2.969h3.377v.742a.742.742,0,1,0,1.484,0V2.969h.965a1.486,1.486,0,0,1,1.484,1.484v4.23a.742.742,0,1,0,1.484,0V4.453A2.972,2.972,0,0,0,16.031,1.484Z" fill="#1c9dff"/>
      <path id="Path_57" data-name="Path 57" d="M274.49,270a4.49,4.49,0,1,0,4.49,4.49A4.5,4.5,0,0,0,274.49,270Zm0,7.5a3.006,3.006,0,1,1,3.006-3.006A3.009,3.009,0,0,1,274.49,277.5Z" transform="translate(-259.98 -259.98)" fill="#1c9dff"/>
      <path id="Path_58" data-name="Path 58" d="M372.818,331.521h-.334v-.779a.742.742,0,0,0-1.484,0v1.521a.742.742,0,0,0,.742.742h1.076a.742.742,0,0,0,0-1.484Z" transform="translate(-357.232 -317.754)" fill="#1c9dff"/>
      <circle id="Ellipse_5" data-name="Ellipse 5" cx="1" cy="1" r="1" transform="translate(10 7)" fill="#1c9dff"/>
      <circle id="Ellipse_6" data-name="Ellipse 6" cx="1" cy="1" r="1" transform="translate(7 10)" fill="#1c9dff"/>
      <ellipse id="Ellipse_7" data-name="Ellipse 7" cx="0.5" cy="1" rx="0.5" ry="1" transform="translate(4 7)" fill="#1c9dff"/>
      <ellipse id="Ellipse_8" data-name="Ellipse 8" cx="0.5" cy="1" rx="0.5" ry="1" transform="translate(4 10)" fill="#1c9dff"/>
      <circle id="Ellipse_9" data-name="Ellipse 9" cx="0.5" cy="0.5" r="0.5" transform="translate(4 14)" fill="#1c9dff"/>
      <ellipse id="Ellipse_10" data-name="Ellipse 10" cx="1" cy="0.5" rx="1" ry="0.5" transform="translate(7 14)" fill="#1c9dff"/>
      <circle id="Ellipse_11" data-name="Ellipse 11" cx="1" cy="1" r="1" transform="translate(7 7)" fill="#1c9dff"/>
    </g>
  </g>
</svg>
