<svg xmlns="http://www.w3.org/2000/svg" width="29.134" height="27.312" viewBox="0 0 29.134 27.312">
  <g id="excel" transform="translate(0 -16.01)">
    <g id="Group_108" data-name="Group 108" transform="translate(0 16.01)">
      <g id="Group_107" data-name="Group 107" transform="translate(0 0)">
        <path id="Path_60" data-name="Path 60" d="M16.058,16.218a.916.916,0,0,0-.748-.193L.743,18.756A.908.908,0,0,0,0,19.65V39.68a.909.909,0,0,0,.743.894L15.31,43.305a.871.871,0,0,0,.168.016.91.91,0,0,0,.91-.91V16.919A.908.908,0,0,0,16.058,16.218Zm-1.491,25.1L1.821,38.924V20.406l12.746-2.389Z" transform="translate(0 -16.01)" fill="#1c9dff"/>
      </g>
    </g>
    <g id="Group_110" data-name="Group 110" transform="translate(14.567 19.65)">
      <g id="Group_109" data-name="Group 109">
        <path id="Path_61" data-name="Path 61" d="M269.656,79.99H256.91a.91.91,0,1,0,0,1.821h11.836V98.2H256.91a.91.91,0,1,0,0,1.821h12.746a.911.911,0,0,0,.91-.91V80.9A.911.911,0,0,0,269.656,79.99Z" transform="translate(-256 -79.99)" fill="#1c9dff"/>
      </g>
    </g>
    <g id="Group_112" data-name="Group 112" transform="translate(14.567 23.292)">
      <g id="Group_111" data-name="Group 111">
        <path id="Path_62" data-name="Path 62" d="M260.552,143.99H256.91a.91.91,0,1,0,0,1.821h3.642a.91.91,0,1,0,0-1.821Z" transform="translate(-256 -143.99)" fill="#1c9dff"/>
      </g>
    </g>
    <g id="Group_114" data-name="Group 114" transform="translate(14.567 26.934)">
      <g id="Group_113" data-name="Group 113" transform="translate(0 0)">
        <path id="Path_63" data-name="Path 63" d="M260.552,207.99H256.91a.91.91,0,0,0,0,1.821h3.642a.91.91,0,0,0,0-1.821Z" transform="translate(-256 -207.99)" fill="#1c9dff"/>
      </g>
    </g>
    <g id="Group_116" data-name="Group 116" transform="translate(14.567 30.576)">
      <g id="Group_115" data-name="Group 115">
        <path id="Path_64" data-name="Path 64" d="M260.552,271.99H256.91a.91.91,0,1,0,0,1.821h3.642a.91.91,0,1,0,0-1.821Z" transform="translate(-256 -271.99)" fill="#1c9dff"/>
      </g>
    </g>
    <g id="Group_118" data-name="Group 118" transform="translate(14.567 34.217)">
      <g id="Group_117" data-name="Group 117">
        <path id="Path_65" data-name="Path 65" d="M260.552,335.99H256.91a.91.91,0,0,0,0,1.821h3.642a.91.91,0,0,0,0-1.821Z" transform="translate(-256 -335.99)" fill="#1c9dff"/>
      </g>
    </g>
    <g id="Group_120" data-name="Group 120" transform="translate(21.85 23.292)">
      <g id="Group_119" data-name="Group 119">
        <path id="Path_66" data-name="Path 66" d="M386.731,143.99H384.91a.91.91,0,0,0,0,1.821h1.821a.91.91,0,1,0,0-1.821Z" transform="translate(-384 -143.99)" fill="#1c9dff"/>
      </g>
    </g>
    <g id="Group_122" data-name="Group 122" transform="translate(21.85 26.934)">
      <g id="Group_121" data-name="Group 121" transform="translate(0 0)">
        <path id="Path_67" data-name="Path 67" d="M386.731,207.99H384.91a.91.91,0,0,0,0,1.821h1.821a.91.91,0,1,0,0-1.821Z" transform="translate(-384 -207.99)" fill="#1c9dff"/>
      </g>
    </g>
    <g id="Group_124" data-name="Group 124" transform="translate(21.85 30.576)">
      <g id="Group_123" data-name="Group 123">
        <path id="Path_68" data-name="Path 68" d="M386.731,271.99H384.91a.91.91,0,0,0,0,1.821h1.821a.91.91,0,1,0,0-1.821Z" transform="translate(-384 -271.99)" fill="#1c9dff"/>
      </g>
    </g>
    <g id="Group_126" data-name="Group 126" transform="translate(21.85 34.217)">
      <g id="Group_125" data-name="Group 125">
        <path id="Path_69" data-name="Path 69" d="M386.731,335.99H384.91a.91.91,0,0,0,0,1.821h1.821a.91.91,0,1,0,0-1.821Z" transform="translate(-384 -335.99)" fill="#1c9dff"/>
      </g>
    </g>
    <g id="Group_128" data-name="Group 128" transform="translate(4.552 25.113)">
      <g id="Group_127" data-name="Group 127">
        <path id="Path_70" data-name="Path 70" d="M87.974,183.579,81.6,176.3a.91.91,0,0,0-1.371,1.2l6.373,7.283a.91.91,0,0,0,1.371-1.2Z" transform="translate(-80.004 -175.984)" fill="#1c9dff"/>
      </g>
    </g>
    <g id="Group_130" data-name="Group 130" transform="translate(4.552 24.203)">
      <g id="Group_129" data-name="Group 129">
        <path id="Path_71" data-name="Path 71" d="M87.842,160.185a.91.91,0,0,0-1.278.158l-6.373,8.194a.911.911,0,0,0,1.437,1.12L88,161.463A.91.91,0,0,0,87.842,160.185Z" transform="translate(-79.999 -159.992)" fill="#1c9dff"/>
      </g>
    </g>
  </g>
</svg>
