<svg xmlns="http://www.w3.org/2000/svg" width="15.3" height="22.382" viewBox="0 0 15.3 22.382">
  <path id="flag" d="M93.958,8.127l2.252-3.873a.656.656,0,0,0-.567-.985H87.429V1.952a1.952,1.952,0,0,0-3.9,0v16.3H82.457a.656.656,0,0,0-.656.656v2.165h-.147a.656.656,0,1,0,0,1.311h8.213a.656.656,0,0,0,0-1.311h-.715V18.906a.656.656,0,0,0-.656-.656H87.429V12.985h8.215A.656.656,0,0,0,96.211,12ZM85.477,1.311a.641.641,0,0,1,.64.64V3.268H84.837V1.952a.641.641,0,0,1,.64-.64Zm2.364,19.759H83.113V19.562h4.729Zm-1.724-2.82H84.837V12.985h1.281Zm-1.281-6.577V4.58H94.5L92.633,7.8a.656.656,0,0,0,0,.659L94.5,11.674H84.837Z" transform="translate(-80.999 0)" fill="#1c9dff"/>
</svg>
