<svg xmlns="http://www.w3.org/2000/svg" width="19.083" height="19.1" viewBox="0 0 19.083 19.1">
  <g id="home" transform="translate(-0.208 0)">
    <g id="Group_70" data-name="Group 70" transform="translate(0.208 0)">
      <path id="Path_55" data-name="Path 55" d="M19.1,9.067,17.736,7.7,10.232.2a.682.682,0,0,0-.965,0l-7.5,7.5L.4,9.068a.682.682,0,0,0,.965.965l.2-.2v8.586a.682.682,0,0,0,.682.682H17.253a.682.682,0,0,0,.682-.682V9.831l.2.2a.682.682,0,0,0,.965-.965Zm-7.3,8.668h0Zm4.775,0H2.927V8.467L9.749,1.646l6.822,6.822Z" transform="translate(-0.208 0)" fill="#1c9dff"/>
    </g>
  </g>
</svg>
