<svg xmlns="http://www.w3.org/2000/svg" width="21.134" height="15.716" viewBox="0 0 21.134 15.716">
  <g id="logout" transform="translate(0)">
    <path id="XMLID_4_" d="M3.28,109.8h11.13a.961.961,0,1,0,0-1.921H3.28l1.242-1.242a.961.961,0,0,0-1.359-1.359L.282,108.164c-.022.022-.043.045-.063.07l-.014.018c-.015.019-.029.037-.042.057l-.011.018c-.013.021-.026.041-.038.063l-.006.013c-.012.024-.024.047-.034.072l0,.009c-.01.026-.02.052-.028.079l0,.01c-.008.026-.015.053-.02.081,0,.008,0,.017,0,.025s-.008.045-.01.068a.947.947,0,0,0,0,.192c0,.023.006.046.01.069s0,.016,0,.024c.006.028.013.055.02.081l0,.01c.008.027.018.054.028.08l0,.009c.01.025.022.049.034.072l.006.013c.012.022.025.043.038.064l.01.017c.013.02.028.039.042.057l.014.018c.02.024.041.048.063.07L3.163,112.4a.961.961,0,0,0,1.359-1.359Z" transform="translate(0 -100.985)" fill="#fff"/>
    <path id="XMLID_5_" d="M109.534,42.3a7.852,7.852,0,0,0-6.526,3.48A.961.961,0,0,0,104.6,46.85a5.937,5.937,0,1,1,.008,6.625.961.961,0,0,0-1.592,1.076A7.858,7.858,0,1,0,109.534,42.3Z" transform="translate(-96.258 -42.299)" fill="#fff"/>
  </g>
</svg>
