<svg xmlns="http://www.w3.org/2000/svg" width="26.483" height="27.448" viewBox="0 0 26.483 27.448">
  <g id="pdf-file" transform="translate(-9)">
    <path id="Path_72" data-name="Path 72" d="M83.506,209H81.8a.8.8,0,0,0-.8.807l.012,6.109a.8.8,0,0,0,1.608,0V214.06l.886,0a2.529,2.529,0,1,0,0-5.057Zm0,3.449-.89,0c0-.342,0-.711,0-.924,0-.182,0-.563,0-.92h.9a.921.921,0,1,1,0,1.841Z" transform="translate(-68.14 -197.796)" fill="#1c9dff"/>
    <path id="Path_73" data-name="Path 73" d="M211.484,209H209.8a.8.8,0,0,0-.8.806s.012,5.91.012,5.932a.8.8,0,0,0,.8.8h0c.051,0,1.249,0,1.728-.013,1.817-.032,3.136-1.611,3.136-3.756C214.683,210.515,213.4,209,211.484,209Zm.035,5.917c-.208,0-.567.007-.9.009,0-.7-.007-3.592-.008-4.318h.874c1.476,0,1.591,1.654,1.591,2.161C213.074,213.825,212.593,214.9,211.519,214.917Z" transform="translate(-189.278 -197.796)" fill="#1c9dff"/>
    <path id="Path_74" data-name="Path 74" d="M356.263,209.45a.8.8,0,1,0,0-1.608H353.8a.8.8,0,0,0-.8.8v6.066a.8.8,0,1,0,1.608,0v-2.286h1.459a.8.8,0,0,0,0-1.608h-1.459V209.45Z" transform="translate(-325.558 -196.7)" fill="#1c9dff"/>
    <path id="Path_75" data-name="Path 75" d="M33.071,7.773h-.59V7.544a4,4,0,0,0-1.1-2.766l-3.34-3.523A4.038,4.038,0,0,0,25.12,0H14.415A2.415,2.415,0,0,0,12,2.412V7.773h-.59A2.415,2.415,0,0,0,9,10.186v9.65a2.415,2.415,0,0,0,2.412,2.412H12v2.788a2.415,2.415,0,0,0,2.412,2.412H30.069a2.415,2.415,0,0,0,2.412-2.412V22.248h.59a2.415,2.415,0,0,0,2.412-2.412v-9.65A2.415,2.415,0,0,0,33.071,7.773ZM13.61,2.412a.805.805,0,0,1,.8-.8H25.12a2.422,2.422,0,0,1,1.751.753l3.34,3.523a2.4,2.4,0,0,1,.662,1.66v.229H13.61ZM30.873,25.036a.805.805,0,0,1-.8.8H14.415a.805.805,0,0,1-.8-.8V22.248H30.873Zm3-5.2a.805.805,0,0,1-.8.8H11.412a.805.805,0,0,1-.8-.8v-9.65a.805.805,0,0,1,.8-.8H33.071a.805.805,0,0,1,.8.8Z" fill="#1c9dff"/>
  </g>
</svg>
