<svg id="stats" xmlns="http://www.w3.org/2000/svg" width="15.3" height="9.269" viewBox="0 0 15.3 9.269">
  <g id="Group_34" data-name="Group 34" transform="translate(0 0)">
    <g id="Group_33" data-name="Group 33" transform="translate(0 0)">
      <path id="Path_29" data-name="Path 29" d="M147.449,122.391a1.29,1.29,0,0,0-1.806.259l-2.994,4.291-4.231-3.184a1.287,1.287,0,0,0-1.8.255l0,0-3.682,5.289a1.287,1.287,0,0,0,1,2.066v.03a1.29,1.29,0,0,0,1-.519l2.994-4.291,4.231,3.184a1.287,1.287,0,0,0,1.8-.255l0,0,3.752-5.319A1.29,1.29,0,0,0,147.449,122.391Z" transform="translate(-132.667 -122.133)" fill="#1c9dff"/>
    </g>
  </g>
</svg>
