<svg id="success" xmlns="http://www.w3.org/2000/svg" width="62.011" height="62.011" viewBox="0 0 62.011 62.011">
  <g id="Group_157" data-name="Group 157" transform="translate(14.724 7.791)">
    <g id="Group_156" data-name="Group 156">
      <path id="Path_85" data-name="Path 85" d="M167.082,65.014a2.337,2.337,0,0,0-3.3,0L135.74,92.973,125.624,81.986a2.337,2.337,0,0,0-3.439,3.166l11.763,12.775a2.334,2.334,0,0,0,1.669.753h.05a2.34,2.34,0,0,0,1.65-.682l29.759-29.681A2.337,2.337,0,0,0,167.082,65.014Z" transform="translate(-121.568 -64.327)" fill="#1c9dff"/>
    </g>
  </g>
  <g id="Group_159" data-name="Group 159">
    <g id="Group_158" data-name="Group 158">
      <path id="Path_86" data-name="Path 86" d="M59.674,28.668a2.337,2.337,0,0,0-2.337,2.337A26.331,26.331,0,1,1,31.005,4.674a2.337,2.337,0,1,0,0-4.674A31.005,31.005,0,1,0,62.011,31.005,2.337,2.337,0,0,0,59.674,28.668Z" fill="#1c9dff"/>
    </g>
  </g>
</svg>
