<svg xmlns="http://www.w3.org/2000/svg" width="47.005" height="59.733" viewBox="0 0 47.005 59.733">
  <g id="sync" transform="translate(-9.074)">
    <path id="Path_83" data-name="Path 83" d="M52.4,15l-2.894,3.126A19.37,19.37,0,0,1,37.849,53.683l.764-.8h-.046l2.9-3.038L38.79,47.291,33.047,53.32v0l-2.478,2.6,2.673,2.55h0l6.027,5.743,2.48-2.6-3.9-3.719A23.575,23.575,0,0,0,52.4,15Z" transform="translate(-6.419 -4.479)" fill="#fff"/>
    <path id="Path_84" data-name="Path 84" d="M13.521,26.863a19.375,19.375,0,0,1,20.2-16.334l-.764.8H33l-2.9,3.038,2.674,2.552,5.743-6.029v0L41,8.293l-2.673-2.55h0L32.3,0l-2.48,2.6,3.9,3.719A23.576,23.576,0,0,0,19.171,49.214l2.894-3.126A19.4,19.4,0,0,1,13.521,26.863Z" fill="#fff"/>
  </g>
</svg>
