<svg xmlns="http://www.w3.org/2000/svg" width="32.749" height="19" viewBox="0 0 32.749 19">
  <path id="university" d="M31.2,12.393V5.688a.975.975,0,0,0-.676-.928L15.9.046a.974.974,0,0,0-.6,0L.675,4.76a.975.975,0,0,0,0,1.855L8,8.976v3.657c0,.016,0,.032,0,.047.029.948.925,1.847,2.531,2.535a13.164,13.164,0,0,0,5.07.975,13.164,13.164,0,0,0,5.07-.975c1.633-.7,2.532-1.617,2.532-2.583V8.976l6.048-1.95v5.367a2.529,2.529,0,0,0-1.55,2.329v3.3a.975.975,0,0,0,.975.975h3.1a.975.975,0,0,0,.975-.975v-3.3a2.528,2.528,0,0,0-1.55-2.329ZM19.6,13.547a11.855,11.855,0,0,1-7.994,0,3.889,3.889,0,0,1-1.656-1V9.6L15.3,11.33a.976.976,0,0,0,.6,0L21.251,9.6v2.949a3.9,3.9,0,0,1-1.656.994Zm-4-4.169L4.151,5.688,15.6,2l11.448,3.69Zm15.2,7.671H29.648V14.722a.575.575,0,0,1,1.151,0Zm0,0" transform="translate(0.001 0.001)" fill="#1c9dff"/>
</svg>
